<svg width="240" height="240" viewBox="0 0 240 240" fill="none" xmlns="http://www.w3.org/2000/svg">
  <rect width="240" height="240" rx="56" fill="#0E1B18"/>
  <path d="M53 72C53 61.5066 61.5066 53 72 53H168C178.493 53 187 61.5066 187 72V168C187 178.493 178.493 187 168 187H72C61.5066 187 53 178.493 53 168V72Z" fill="#F5E7C6"/>
  <path d="M74 82C74 77.5817 77.5817 74 82 74H158C162.418 74 166 77.5817 166 82V98C166 102.418 162.418 106 158 106H82C77.5817 106 74 102.418 74 98V82Z" fill="#183C34"/>
  <path d="M74 121C74 116.582 77.5817 113 82 113H118C122.418 113 126 116.582 126 121V158C126 162.418 122.418 166 118 166H82C77.5817 166 74 162.418 74 158V121Z" fill="#D95F43"/>
  <path d="M136 121C136 116.582 139.582 113 144 113H158C162.418 113 166 116.582 166 121V158C166 162.418 162.418 166 158 166H144C139.582 166 136 162.418 136 158V121Z" fill="#F4B860"/>
  <circle cx="100" cy="139" r="14" fill="#F5E7C6"/>
  <path d="M88 157C91.2223 151.852 95.3165 149.278 100.283 149.278C105.249 149.278 109.155 151.852 112 157" stroke="#F5E7C6" stroke-width="7" stroke-linecap="round"/>
  <path d="M96 91H144" stroke="#F5E7C6" stroke-width="8" stroke-linecap="round"/>
  <path d="M151 132V147" stroke="#183C34" stroke-width="8" stroke-linecap="round"/>
</svg>
